# xmcd
#
# Track frame offsets: 
#        150
#        15876
#        28889
#        47142
#        65951
#        90084
#        105298
#        126413
#        141471
#        159495
#        178449
#        197223
#        211837
#
# Disc length: 2915 seconds
#
# Revision: 0
# Processed by: cddbd v1.5.2PL0 Copyright (c) Steve Scherf et al.
# Submitted via: ExactAudioCopy v0.95b4
#
DISCID=b80b610d
DTITLE=Barrelhouse Chuck - Got my Eyes on You
DYEAR=2006
DGENRE=Blues
TTITLE0=Floyd's Blues
TTITLE1=Call my Job
TTITLE2=Got my Eyes on You
TTITLE3=Mother Earth
TTITLE4=Cleo's Mood
TTITLE5=It's you Baby
TTITLE6=School Days
TTITLE7=The Biggest Sounds of Big Moose
TTITLE8=Just to be with you
TTITLE9=Big Town Playboy
TTITLE10=Red River Rumba
TTITLE11=Mama you don't Mean me no Good
TTITLE12=Iza Mae
EXTD=
EXTT0=
EXTT1=
EXTT2=
EXTT3=
EXTT4=
EXTT5=
EXTT6=
EXTT7=
EXTT8=
EXTT9=
EXTT10=
EXTT11=
EXTT12=
PLAYORDER=
